<svg width="40" height="40" viewBox="0 0 40 40" fill="none" xmlns="http://www.w3.org/2000/svg">
<g clip-path="url(#clip0_517_18425)">
<path d="M22.2532 15.5444C21.4271 15.5444 20.7576 16.2113 20.7576 17.0326C20.7576 17.854 21.4271 18.5222 22.2532 18.5222C23.0793 18.5222 23.7474 17.8554 23.7474 17.0326C23.7474 16.2099 23.0779 15.5444 22.2532 15.5444Z" fill="#FF281E"/>
<path d="M31.213 15.5444C30.3869 15.5444 29.7188 16.2113 29.7188 17.0326C29.7188 17.854 30.3883 18.5222 31.213 18.5222C32.0377 18.5222 32.7072 17.8554 32.7072 17.0326C32.7072 16.2099 32.0377 15.5444 31.213 15.5444Z" fill="#FF281E"/>
<path d="M32.9979 3H7.00206C3.68653 3 1 5.6854 1 8.99866V23.2289C1 26.5422 3.68653 29.2276 7.00206 29.2276H15.9562L19.0132 34.1835C19.0132 34.1835 19.0453 34.242 19.1124 34.3241C19.2913 34.629 19.6198 34.8364 20 34.8364C20.3802 34.8364 20.7059 34.6318 20.8848 34.3297C20.9617 34.2406 20.9882 34.1821 20.9882 34.1821L24.0438 29.2276H32.9979C36.3121 29.2276 39 26.5422 39 23.2289V8.99866C39 5.6854 36.3121 3 32.9979 3ZM9.43979 20.5602C8.04061 20.5602 7.48569 19.5635 7.48569 19.5635V20.3194H5.13463V10.665H7.46193V14.3388C8.40263 13.427 9.43979 13.427 9.43979 13.427C12.5974 13.427 12.719 16.9574 12.719 16.9574C12.719 20.4391 9.43979 20.5602 9.43979 20.5602ZM16.7697 14.0757V20.318H14.5277V14.6033C14.5277 12.6335 13.4654 12.6822 13.4654 12.6822V10.4492C16.8648 10.4492 16.7697 14.0757 16.7697 14.0757ZM26.1852 17.0326C26.1852 20.5533 22.2532 20.5602 22.2532 20.5602C18.2849 20.5602 18.4093 17.0326 18.4093 17.0326C18.4093 13.4576 22.2532 13.4576 22.2532 13.4576C26.3138 13.4576 26.1852 17.0326 26.1852 17.0326ZM34.864 20.2289C34.864 23.8846 31.4646 23.8484 31.4646 23.8484H30.5602V21.795H31.1207C32.7673 21.795 32.6038 20.1022 32.6038 20.1022V19.5607C31.8811 20.4976 30.5602 20.4433 30.5602 20.4433C27.323 20.4433 27.3593 17.0061 27.3593 17.0061C27.3593 13.317 30.6511 13.4548 30.6511 13.4548C31.9342 13.4548 32.6038 14.3374 32.6038 14.3374V13.6901H34.864V20.2275V20.2289Z" fill="#FF281E"/>
<path d="M8.92678 15.5444C8.10209 15.5444 7.43115 16.2113 7.43115 17.0326C7.43115 17.854 8.10069 18.5222 8.92678 18.5222C9.75286 18.5222 10.421 17.8554 10.421 17.0326C10.421 16.2099 9.75146 15.5444 8.92678 15.5444Z" fill="#FF281E"/>
</g>
<defs>
<clipPath id="clip0_517_18425">
<rect width="38" height="31.8378" fill="white" transform="translate(1 3)"/>
</clipPath>
</defs>
</svg>
