<svg xmlns="http://www.w3.org/2000/svg" width="20" height="20" viewBox="0 0 20 20" fill="none">
  <path fill-rule="evenodd" clip-rule="evenodd" d="M9.99996 17.5C14.1421 17.5 17.5 14.1421 17.5 9.99996C17.5 5.85782 14.1421 2.49996 9.99996 2.49996C5.85782 2.49996 2.49996 5.85782 2.49996 9.99996C2.49996 14.1421 5.85782 17.5 9.99996 17.5ZM9.99996 18.3333C14.6023 18.3333 18.3333 14.6023 18.3333 9.99996C18.3333 5.39759 14.6023 1.66663 9.99996 1.66663C5.39759 1.66663 1.66663 5.39759 1.66663 9.99996C1.66663 14.6023 5.39759 18.3333 9.99996 18.3333Z" fill="#999999"/>
  <path d="M9.21335 11.4853C9.21881 10.1272 9.58422 9.71275 10.2387 9.30371C10.7077 8.99829 11.0731 8.66015 11.0677 8.1584C11.0731 7.61301 10.6477 7.25851 10.1187 7.25306C9.61149 7.25851 9.137 7.59665 9.11518 8.23475H7.56628C7.59355 6.70221 8.73341 5.96594 10.1296 5.96594C11.6512 5.96594 12.7256 6.75675 12.7256 8.10386C12.7256 9.00375 12.2621 9.57095 11.5476 10.0018C10.9313 10.3672 10.6586 10.7217 10.6532 11.4853V11.6052H9.21335V11.4853ZM9.04974 13.1541C9.03883 12.6524 9.45332 12.2433 9.96599 12.2488C10.4514 12.2433 10.8713 12.6524 10.8713 13.1541C10.8713 13.6614 10.4514 14.0704 9.96599 14.0704C9.45332 14.0704 9.03883 13.6614 9.04974 13.1541Z" fill="#999999"/>
</svg>