<svg width="24" height="24" viewBox="0 0 24 24" fill="none" xmlns="http://www.w3.org/2000/svg">
<path fill-rule="evenodd" clip-rule="evenodd" d="M7.18398 2C7.65343 2 8.03398 2.44772 8.03398 3V7C8.03398 7.55229 7.65343 8 7.18398 8C6.71454 8 6.33398 7.55229 6.33398 7V3C6.33398 2.44772 6.71454 2 7.18398 2Z" fill="#1C1C1E"/>
<path fill-rule="evenodd" clip-rule="evenodd" d="M16.8168 2C17.2862 2 17.6668 2.44772 17.6668 3V7C17.6668 7.55229 17.2862 8 16.8168 8C16.3474 8 15.9668 7.55229 15.9668 7V3C15.9668 2.44772 16.3474 2 16.8168 2Z" fill="#1C1C1E"/>
<path d="M3.5 9C3.5 6.51472 5.51472 4.5 8 4.5H16C18.4853 4.5 20.5 6.51472 20.5 9V16.5C20.5 18.9853 18.4853 21 16 21H8C5.51472 21 3.5 18.9853 3.5 16.5V9Z" fill="white"/>
<path fill-rule="evenodd" clip-rule="evenodd" d="M16 6.1H8C6.39837 6.1 5.1 7.39837 5.1 9V16.5C5.1 18.1016 6.39837 19.4 8 19.4H16C17.6016 19.4 18.9 18.1016 18.9 16.5V9C18.9 7.39837 17.6016 6.1 16 6.1ZM8 4.5C5.51472 4.5 3.5 6.51472 3.5 9V16.5C3.5 18.9853 5.51472 21 8 21H16C18.4853 21 20.5 18.9853 20.5 16.5V9C20.5 6.51472 18.4853 4.5 16 4.5H8Z" fill="#1C1C1E"/>
<path fill-rule="evenodd" clip-rule="evenodd" d="M15.3039 11.4165C15.6262 11.6767 15.6764 12.1489 15.4162 12.4712L12.4052 16.2C11.9049 16.8196 10.9605 16.8196 10.4602 16.2L8.58253 13.8747C8.3223 13.5525 8.37259 13.0803 8.69486 12.82C9.01712 12.5598 9.48932 12.6101 9.74955 12.9323L11.4327 15.0168L14.2492 11.5288C14.5094 11.2066 14.9816 11.1563 15.3039 11.4165Z" fill="#1C1C1E"/>
<path d="M4.44531 8.20001H19.4453V9.80001H4.44531V8.20001Z" fill="#1C1C1E"/>
</svg>
