<svg width="24" height="24" viewBox="0 0 24 24" fill="none" xmlns="http://www.w3.org/2000/svg">
<path fill-rule="evenodd" clip-rule="evenodd" d="M14.5376 16.8274C16.372 14.6976 17.9 12.1779 17.9 9.88889C17.9 6.7142 15.2811 4.1 12 4.1C8.71892 4.1 6.1 6.7142 6.1 9.88889C6.1 12.1779 7.62804 14.6976 9.46235 16.8274C10.345 17.8523 11.2323 18.7113 11.9005 19.3147C11.9343 19.3452 11.9674 19.375 12 19.4042C12.0326 19.375 12.0657 19.3452 12.0995 19.3147C12.7677 18.7113 13.655 17.8523 14.5376 16.8274ZM12 21.5C12 21.5 19.5 15.6944 19.5 9.88889C19.5 5.80812 16.1421 2.5 12 2.5C7.85786 2.5 4.5 5.80812 4.5 9.88889C4.5 15.6944 12 21.5 12 21.5Z" fill="#1C1C1E"/>
<path d="M13.5 9.5C13.5 10.3284 12.8284 11 12 11C11.1716 11 10.5 10.3284 10.5 9.5C10.5 8.67157 11.1716 8 12 8C12.8284 8 13.5 8.67157 13.5 9.5Z" fill="#1C1C1E"/>
</svg>
