<svg width="24" height="24" viewBox="0 0 24 24" fill="none" xmlns="http://www.w3.org/2000/svg">
<path fill-rule="evenodd" clip-rule="evenodd" d="M12.4335 12.4343C12.746 12.1219 13.2525 12.1219 13.5649 12.4343L19.5649 18.4343C19.8773 18.7467 19.8773 19.2533 19.5649 19.5657C19.2525 19.8781 18.746 19.8781 18.4335 19.5657L12.4335 13.5657C12.1211 13.2533 12.1211 12.7467 12.4335 12.4343Z" fill="#1C1C1E"/>
<path d="M18 10.5C18 14.6421 14.6421 18 10.5 18C6.35786 18 3 14.6421 3 10.5C3 6.35786 6.35786 3 10.5 3C14.6421 3 18 6.35786 18 10.5Z" fill="white"/>
<path fill-rule="evenodd" clip-rule="evenodd" d="M10.5 16.4C13.7585 16.4 16.4 13.7585 16.4 10.5C16.4 7.24152 13.7585 4.6 10.5 4.6C7.24152 4.6 4.6 7.24152 4.6 10.5C4.6 13.7585 7.24152 16.4 10.5 16.4ZM10.5 18C14.6421 18 18 14.6421 18 10.5C18 6.35786 14.6421 3 10.5 3C6.35786 3 3 6.35786 3 10.5C3 14.6421 6.35786 18 10.5 18Z" fill="#1C1C1E"/>
</svg>
