<svg width="16" height="16" viewBox="0 0 16 16" fill="none" xmlns="http://www.w3.org/2000/svg">
<path d="M14.1396 9.81435L9.55044 10.7863V12.4929L14.1396 11.521V14.135L16 13.741V9.41737L14.1396 9.81139V9.81435Z" fill="#1C1C1E"/>
<path d="M14.1396 2.30468V9.24523L16 8.85121V1.91067L14.1396 2.30468Z" fill="#1C1C1E"/>
<path d="M8.31014 10.4798C9.56681 10.2137 12.2472 9.64607 13.5194 9.37664V7.66995L11.7179 8.05145C12.1097 7.39938 13.1158 5.72501 13.5194 5.05337V5.0528L11.7174 5.43441V5.43453C12.1099 4.78132 13.1153 3.10808 13.5195 2.43553C12.2629 2.70166 9.58244 3.26931 8.31026 3.53874V5.24543L10.1118 4.86392C9.71999 5.51599 8.71386 7.19037 8.31026 7.86201V7.86258L10.1123 7.48096C9.72048 8.13303 8.71398 9.80798 8.31026 10.4798H8.31014Z" fill="#1C1C1E"/>
<path d="M7.68986 6.63444L4.71314 7.2649V6.69543L4.70037 6.69816C5.93062 6.04598 6.77006 4.64444 6.3486 3.39082L7.68974 3.10683V1.40002L4.71302 2.03048V1.46158L2.97672 1.82931V2.39821L0 3.02866V4.73535L1.34114 4.45136C0.941388 5.67563 1.62281 6.92834 2.98937 7.06055L2.9766 7.06328V7.63274L0 8.26297V9.96966L7.68986 8.34102V6.63433V6.63444ZM3.84493 5.40904C3.36543 5.51065 2.97672 5.23632 2.97672 4.79645C2.97672 4.5004 3.15297 4.2048 3.41442 4.01217C3.64301 3.83672 3.99984 3.7383 4.27544 3.82978C4.53689 3.9117 4.71314 4.13255 4.71314 4.4286C4.71314 4.86847 4.32443 5.30744 3.84493 5.40893V5.40904Z" fill="#1C1C1E"/>
<path d="M4.64716 12.1719C5.03897 11.5198 6.04547 9.84484 6.44919 9.17298C5.19264 9.43911 2.51248 10.0068 1.24042 10.2762V11.9829L3.04159 11.6014C2.64978 12.2533 1.64402 13.9271 1.24042 14.5988V14.6L7.68999 13.2341V11.5274L4.64728 12.1719H4.64716Z" fill="#1C1C1E"/>
</svg>
