<svg width="65" height="27" viewBox="0 0 65 27" fill="none" xmlns="http://www.w3.org/2000/svg">
<path d="M64.4257 14.1161C64.4257 14.4784 64.132 14.7721 63.7697 14.7721H61.0428C60.6805 14.7721 60.3868 14.4784 60.3868 14.1161V4.51317C60.3868 4.32432 60.5286 3.85803 61.0621 3.85803L63.8089 3.86937C64.1553 3.89012 64.4257 4.17712 64.4257 4.52418V14.1161Z" fill="url(#paint0_linear_3071_6198)"/>
<path d="M51.6983 14.1519H48.8135C48.4512 14.1519 48.1576 13.8582 48.1576 13.4959V9.18404C48.1576 8.82175 48.4512 8.52806 48.8135 8.52806H53.6001C53.7812 8.52806 53.9281 8.38121 53.9281 8.20006V6.50177C53.9281 6.32063 53.7812 6.17378 53.6001 6.17378H48.8135C48.4512 6.17378 48.1576 5.88009 48.1576 5.5178V5.20617C48.1576 4.84388 48.4512 4.55018 48.8135 4.55018H57.398C57.7603 4.55018 58.054 4.84388 58.054 5.20617V9.49566C58.054 9.85796 57.7603 10.1516 57.398 10.1516H52.6115C52.4303 10.1516 52.2835 10.2985 52.2835 10.4796V12.2236C52.2835 12.4047 52.4304 12.5518 52.6115 12.5495C54.7873 12.5222 56.371 12.2262 58.2263 11.8101C58.5696 11.733 58.8408 11.9409 58.9382 12.279L59.0467 12.5653C59.1497 12.9228 58.9353 13.295 58.5725 13.3774C56.5734 13.8316 54.3379 14.1519 51.6983 14.1519Z" fill="url(#paint1_linear_3071_6198)"/>
<path fill-rule="evenodd" clip-rule="evenodd" d="M64.3768 22.7852C64.3768 23.1475 64.0831 23.4412 63.7208 23.4412H49.6677C49.3054 23.4412 49.0117 23.1475 49.0117 22.7852V16.8196C49.0117 16.4419 49.3299 16.1422 49.7069 16.1648L52.4492 16.1553C52.7956 16.1761 53.0659 16.4631 53.0659 16.8102V17.6659C53.0659 17.847 53.2127 17.9939 53.3939 17.9939H59.9946C60.1758 17.9939 60.3226 17.847 60.3226 17.6659V16.5867C60.3226 16.209 60.6408 15.9093 61.0178 15.9319L63.7601 15.9224C64.1065 15.9431 64.3768 16.2301 64.3768 16.5772V22.7852ZM53.3939 19.7339C53.2127 19.7339 53.0659 19.8808 53.0659 20.0619V21.3964C53.0659 21.5775 53.2127 21.7244 53.3939 21.7244H59.9946C60.1758 21.7244 60.3226 21.5775 60.3226 21.3964V20.0619C60.3226 19.8808 60.1758 19.7339 59.9946 19.7339H53.3939Z" fill="url(#paint2_linear_3071_6198)"/>
<path d="M45.5054 15.8414C45.5054 16.2037 45.2118 16.4974 44.8495 16.4974H29.9091C29.5468 16.4974 29.2531 16.2037 29.2531 15.8414V5.12538C29.2531 4.76308 29.5468 4.46939 29.9091 4.46939H44.8495C45.2117 4.46939 45.5054 4.76309 45.5054 5.12538V5.53019C45.5054 5.89248 45.2118 6.18617 44.8495 6.18617H33.6362C33.4551 6.18617 33.3083 6.33302 33.3083 6.51417V9.26206C33.3083 9.44321 33.4551 9.59006 33.6362 9.59006H44.1839C44.5462 9.59006 44.8399 9.88375 44.8399 10.246V10.6509C44.8399 11.0131 44.5462 11.3068 44.1839 11.3068H33.6362C33.4551 11.3068 33.3083 11.4537 33.3083 11.6348V14.4526C33.3083 14.6338 33.4551 14.7806 33.6362 14.7806H44.8495C45.2118 14.7806 45.5054 15.0743 45.5054 15.4366V15.8414Z" fill="url(#paint3_linear_3071_6198)"/>
<path d="M46.4794 21.8505C46.4794 22.2128 46.1857 22.5064 45.8234 22.5064H29.0178C28.6555 22.5064 28.3618 22.2128 28.3618 21.8505V21.4457C28.3618 21.0834 28.6555 20.7897 29.0178 20.7897H45.8234C46.1857 20.7897 46.4794 21.0834 46.4794 21.4457V21.8505Z" fill="url(#paint4_linear_3071_6198)"/>
<path d="M21.3411 0.678868C21.403 0.5602 21.5209 0.500573 21.6392 0.5C21.7574 0.500573 21.8753 0.5602 21.9372 0.678868C22.0187 0.835368 22.0959 0.995404 22.1741 1.1576C22.691 2.22976 23.2533 3.39582 25.4367 4.25437C25.5498 4.29887 25.6029 4.4043 25.5995 4.51073C25.6029 4.61716 25.5498 4.7226 25.4367 4.7671C23.2533 5.62564 22.691 6.79171 22.1741 7.86387C22.0959 8.02606 22.0187 8.1861 21.9372 8.3426C21.8753 8.46127 21.7574 8.52089 21.6391 8.52147C21.5209 8.52089 21.403 8.46127 21.3411 8.3426C21.2596 8.1861 21.1824 8.02606 21.1042 7.86387C20.5872 6.79171 20.025 5.62564 17.8416 4.7671C17.7285 4.7226 17.6754 4.61716 17.6788 4.51073C17.6754 4.4043 17.7285 4.29887 17.8416 4.25437C20.025 3.39582 20.5872 2.22976 21.1042 1.1576C21.1824 0.995404 21.2596 0.835368 21.3411 0.678868Z" fill="url(#paint5_linear_3071_6198)"/>
<path d="M9.17811 14.9732L5.02827 4.79379C4.9525 4.60792 4.75736 4.48454 4.53915 4.48454H1.09236C0.728194 4.48454 0.476125 4.81492 0.603994 5.12464L7.30094 21.3457C7.31504 21.3798 7.33316 21.4118 7.35471 21.4413L7.77442 22.4017C7.99961 22.917 8.73527 22.903 8.94077 22.3796L9.3424 21.3565C9.34581 21.3488 9.34902 21.341 9.35201 21.3331L9.966 19.8762C9.98427 19.8852 10.0206 19.823 10.1143 19.5803L12.9016 12.916L16.3819 21.3457C16.3935 21.3739 16.4079 21.4006 16.4247 21.4257L16.8512 22.4017C17.0764 22.917 17.8121 22.903 18.0176 22.3796L18.4043 21.3944C18.4153 21.3748 18.4249 21.3543 18.4329 21.3331L19.7242 18.2693L18.259 14.9732L14.1092 4.79379C14.0334 4.60792 13.8383 4.48454 13.6201 4.48454H10.1733C9.8091 4.48454 9.55704 4.81492 9.68491 5.12464L11.8745 10.4283L9.59208 15.9045L9.17811 14.9732Z" fill="url(#paint6_linear_3071_6198)"/>
<defs>
<linearGradient id="paint0_linear_3071_6198" x1="32.498" y1="0.5" x2="32.498" y2="23.4412" gradientUnits="userSpaceOnUse">
<stop stop-color="#37D5C5"/>
<stop offset="1" stop-color="#08BCD5"/>
</linearGradient>
<linearGradient id="paint1_linear_3071_6198" x1="32.498" y1="0.5" x2="32.498" y2="23.4412" gradientUnits="userSpaceOnUse">
<stop stop-color="#37D5C5"/>
<stop offset="1" stop-color="#08BCD5"/>
</linearGradient>
<linearGradient id="paint2_linear_3071_6198" x1="32.498" y1="0.5" x2="32.498" y2="23.4412" gradientUnits="userSpaceOnUse">
<stop stop-color="#37D5C5"/>
<stop offset="1" stop-color="#08BCD5"/>
</linearGradient>
<linearGradient id="paint3_linear_3071_6198" x1="32.498" y1="0.5" x2="32.498" y2="23.4412" gradientUnits="userSpaceOnUse">
<stop stop-color="#37D5C5"/>
<stop offset="1" stop-color="#08BCD5"/>
</linearGradient>
<linearGradient id="paint4_linear_3071_6198" x1="32.498" y1="0.5" x2="32.498" y2="23.4412" gradientUnits="userSpaceOnUse">
<stop stop-color="#37D5C5"/>
<stop offset="1" stop-color="#08BCD5"/>
</linearGradient>
<linearGradient id="paint5_linear_3071_6198" x1="32.498" y1="0.5" x2="32.498" y2="23.4412" gradientUnits="userSpaceOnUse">
<stop stop-color="#37D5C5"/>
<stop offset="1" stop-color="#08BCD5"/>
</linearGradient>
<linearGradient id="paint6_linear_3071_6198" x1="32.498" y1="0.5" x2="32.498" y2="23.4412" gradientUnits="userSpaceOnUse">
<stop stop-color="#37D5C5"/>
<stop offset="1" stop-color="#08BCD5"/>
</linearGradient>
</defs>
</svg>
