<svg width="32" height="26" viewBox="0 0 32 26" fill="none" xmlns="http://www.w3.org/2000/svg">
<path d="M28.0124 16.5737L19.0342 18.488V21.8497L28.0124 19.9353V25.0841L31.6522 24.308V15.7917L28.0124 16.5678V16.5737Z" fill="white"/>
<path d="M28.0124 16.5737L19.0342 18.488V21.8497L28.0124 19.9353V25.0841L31.6522 24.308V15.7917L28.0124 16.5678V16.5737Z" fill="url(#paint0_linear_2702_15898)"/>
<path d="M28.0124 1.78191V15.4527L31.6522 14.6766V1.00581L28.0124 1.78191Z" fill="white"/>
<path d="M28.0124 1.78191V15.4527L31.6522 14.6766V1.00581L28.0124 1.78191Z" fill="url(#paint1_linear_2702_15898)"/>
<path d="M16.6076 17.8845C19.0662 17.3603 24.3102 16.2422 26.7991 15.7115V12.3499L23.2745 13.1013C24.0411 11.8169 26.0095 8.5189 26.7991 7.19598V7.19486L23.2736 7.94652V7.94675C24.0416 6.66013 26.0085 3.36435 26.7993 2.03963C24.3408 2.56383 19.0968 3.68192 16.6079 4.21261V7.57428L20.1324 6.82283C19.3659 8.10721 17.3975 11.4052 16.6079 12.7282V12.7293L20.1334 11.9776C19.3669 13.262 17.3977 16.5611 16.6079 17.8845H16.6076Z" fill="white"/>
<path d="M16.6076 17.8845C19.0662 17.3603 24.3102 16.2422 26.7991 15.7115V12.3499L23.2745 13.1013C24.0411 11.8169 26.0095 8.5189 26.7991 7.19598V7.19486L23.2736 7.94652V7.94675C24.0416 6.66013 26.0085 3.36435 26.7993 2.03963C24.3408 2.56383 19.0968 3.68192 16.6079 4.21261V7.57428L20.1324 6.82283C19.3659 8.10721 17.3975 11.4052 16.6079 12.7282V12.7293L20.1334 11.9776C19.3669 13.262 17.3977 16.5611 16.6079 17.8845H16.6076Z" fill="url(#paint2_linear_2702_15898)"/>
<path d="M15.3941 10.3102L9.57044 11.552V10.4303L9.54545 10.4357C11.9523 9.15112 13.5946 6.39052 12.7701 3.92127L15.3939 3.36189V0L9.5702 1.2418V0.121244L6.17329 0.84557V1.96612L0.349609 3.20792V6.56959L2.97342 6.01021C2.19135 8.42164 3.52449 10.8891 6.19804 11.1495L6.17305 11.1549V12.2766L0.349609 13.5179V16.8796L15.3941 13.6717V10.31V10.3102ZM7.87187 7.89655C6.93377 8.09668 6.17329 7.55635 6.17329 6.68993C6.17329 6.1068 6.5181 5.52456 7.02962 5.14514C7.47683 4.79956 8.17494 4.6057 8.71412 4.78589C9.22563 4.94725 9.57044 5.38225 9.57044 5.96538C9.57044 6.8318 8.80997 7.69642 7.87187 7.89632V7.89655Z" fill="white"/>
<path d="M15.3941 10.3102L9.57044 11.552V10.4303L9.54545 10.4357C11.9523 9.15112 13.5946 6.39052 12.7701 3.92127L15.3939 3.36189V0L9.5702 1.2418V0.121244L6.17329 0.84557V1.96612L0.349609 3.20792V6.56959L2.97342 6.01021C2.19135 8.42164 3.52449 10.8891 6.19804 11.1495L6.17305 11.1549V12.2766L0.349609 13.5179V16.8796L15.3941 13.6717V10.31V10.3102ZM7.87187 7.89655C6.93377 8.09668 6.17329 7.55635 6.17329 6.68993C6.17329 6.1068 6.5181 5.52456 7.02962 5.14514C7.47683 4.79956 8.17494 4.6057 8.71412 4.78589C9.22563 4.94725 9.57044 5.38225 9.57044 5.96538C9.57044 6.8318 8.80997 7.69642 7.87187 7.89632V7.89655Z" fill="url(#paint3_linear_2702_15898)"/>
<path d="M9.44135 21.2172C10.2079 19.9329 12.177 16.6337 12.9669 15.3104C10.5085 15.8346 5.26504 16.9526 2.77639 17.4833V20.845L6.3002 20.0936C5.53366 21.3777 3.56598 24.6746 2.77639 25.9975V26L15.3944 23.3095V19.9479L9.44159 21.2172H9.44135Z" fill="white"/>
<path d="M9.44135 21.2172C10.2079 19.9329 12.177 16.6337 12.9669 15.3104C10.5085 15.8346 5.26504 16.9526 2.77639 17.4833V20.845L6.3002 20.0936C5.53366 21.3777 3.56598 24.6746 2.77639 25.9975V26L15.3944 23.3095V19.9479L9.44159 21.2172H9.44135Z" fill="url(#paint4_linear_2702_15898)"/>
<defs>
<linearGradient id="paint0_linear_2702_15898" x1="49.6968" y1="41.5718" x2="49.6968" y2="-1.96645" gradientUnits="userSpaceOnUse">
<stop stop-color="#B500D3"/>
<stop offset="1" stop-color="#FE20A8"/>
</linearGradient>
<linearGradient id="paint1_linear_2702_15898" x1="49.6968" y1="41.5718" x2="49.6968" y2="-1.96645" gradientUnits="userSpaceOnUse">
<stop stop-color="#B500D3"/>
<stop offset="1" stop-color="#FE20A8"/>
</linearGradient>
<linearGradient id="paint2_linear_2702_15898" x1="49.6968" y1="41.5718" x2="49.6968" y2="-1.96645" gradientUnits="userSpaceOnUse">
<stop stop-color="#B500D3"/>
<stop offset="1" stop-color="#FE20A8"/>
</linearGradient>
<linearGradient id="paint3_linear_2702_15898" x1="49.6968" y1="41.5718" x2="49.6968" y2="-1.96645" gradientUnits="userSpaceOnUse">
<stop stop-color="#B500D3"/>
<stop offset="1" stop-color="#FE20A8"/>
</linearGradient>
<linearGradient id="paint4_linear_2702_15898" x1="49.6968" y1="41.5718" x2="49.6968" y2="-1.96645" gradientUnits="userSpaceOnUse">
<stop stop-color="#B500D3"/>
<stop offset="1" stop-color="#FE20A8"/>
</linearGradient>
</defs>
</svg>
