<svg width="150" height="60" viewBox="0 0 150 60" fill="none" xmlns="http://www.w3.org/2000/svg">
<g clip-path="url(#clip0_7_14)">
<path d="M139.118 21.445L130.882 19.5275L129.412 18.9375L91.6177 19.2325V37.5225L139.118 37.67V21.445Z" fill="white"/>
<path d="M123.677 35.9001C124.118 34.4251 123.971 32.9501 123.235 32.0651C122.5 31.1801 121.471 30.5901 120.147 30.4426L94.5589 30.1476C94.4119 30.1476 94.2648 30.0001 94.1177 30.0001C93.9707 29.8526 93.9707 29.7051 94.1177 29.5576C94.2648 29.2626 94.4119 29.1151 94.706 29.1151L120.441 28.8201C123.529 28.6726 126.765 26.1651 127.941 23.2151L129.412 19.3801C129.412 19.2326 129.559 19.0851 129.412 18.9376C127.794 11.4151 121.029 5.81006 113.088 5.81006C105.735 5.81006 99.4118 10.5301 97.206 17.1676C95.7354 16.1351 93.9707 15.5451 91.9118 15.6926C88.3824 15.9876 85.5883 18.9376 85.1471 22.4776C85.0001 23.3626 85.1471 24.2476 85.2942 25.1326C79.5589 25.2801 74.853 30.0001 74.853 35.9001C74.853 36.4901 74.853 36.9326 75.0001 37.5226C75.0001 37.8176 75.2942 37.9651 75.4413 37.9651H122.647C122.941 37.9651 123.235 37.8176 123.235 37.5226L123.677 35.9001Z" fill="#F38020"/>
<path d="M131.765 19.38H131.029C130.882 19.38 130.735 19.5275 130.588 19.675L129.559 23.215C129.118 24.69 129.265 26.165 130 27.05C130.735 27.935 131.765 28.525 133.088 28.6725L138.529 28.9675C138.677 28.9675 138.824 29.115 138.971 29.115C139.118 29.2625 139.118 29.41 138.971 29.5575C138.824 29.8525 138.677 30 138.382 30L132.794 30.295C129.706 30.4425 126.471 32.95 125.294 35.9L125 37.2275C124.853 37.375 125 37.67 125.294 37.67H144.706C145 37.67 145.147 37.5225 145.147 37.2275C145.441 36.0475 145.735 34.72 145.735 33.3925C145.735 25.7225 139.412 19.38 131.765 19.38Z" fill="#FBAE40"/>
<path d="M147.647 0.49997L-7.20605 -0.0900295V-0.827529C-7.20605 -0.827529 -6.61782 -2.15503 -5.88253 -2.15503C-5.14723 -2.15503 -4.559 -1.56503 -4.559 -0.827529C-4.559 -0.0900295 -5.14723 0.49997 -5.88253 0.49997M-5.88253 -1.86003C-6.47076 -1.86003 -6.91194 -1.41753 -6.91194 -0.827529C-6.91194 -0.237529 -6.47076 0.20497 -5.88253 0.20497C-5.29429 0.20497 -4.85311 -0.237529 -4.85311 -0.827529C-4.85311 -1.41753 -5.29429 -1.86003 -5.88253 -1.86003ZM-5.29429 -0.0900295H-5.58841L-5.88253 -0.53253H-6.17664V-0.0900295H-6.47076V-1.41753H-5.73547C-5.44135 -1.41753 -5.29429 -1.27003 -5.29429 -0.975029C-5.29429 -0.827529 -5.44135 -0.68003 -5.58841 -0.53253L-5.29429 -0.0900295ZM-5.73547 -0.827529C-5.58841 -0.827529 -5.58841 -0.827529 -5.58841 -0.975029C-5.58841 -1.12253 -5.73547 -1.12253 -5.73547 -1.12253H-6.17664V-0.680029H-5.73547V-0.827529ZM15.8822 43.275H19.1175V52.125H24.7057V54.9275H15.8822V43.275ZM28.0881 49.0275C28.0881 45.635 30.7351 42.98 34.4116 42.98C38.0881 42.98 40.5881 45.635 40.5881 49.0275C40.5881 52.42 37.941 55.075 34.2645 55.075C30.7351 55.075 28.0881 52.42 28.0881 49.0275ZM37.3528 49.0275C37.3528 47.2575 36.1763 45.7825 34.4116 45.7825C32.6469 45.7825 31.4704 47.2575 31.4704 48.88C31.4704 50.5025 32.6469 51.9775 34.4116 51.9775C36.1763 52.2725 37.3528 50.7975 37.3528 49.0275ZM44.5587 49.765V43.275H47.794V49.765C47.794 51.3875 48.6763 52.2725 49.9998 52.2725C51.3234 52.2725 52.2057 51.535 52.2057 49.9125V43.275H55.441V49.765C55.441 53.6 53.2351 55.2225 49.9998 55.2225C46.6175 55.075 44.5587 53.4525 44.5587 49.765ZM60.294 43.275H64.8528C68.9704 43.275 71.4704 45.635 71.4704 49.0275C71.4704 52.42 68.9704 54.9275 64.8528 54.9275H60.441V43.275H60.294ZM64.8528 51.9775C66.7645 51.9775 68.0881 50.945 68.0881 49.0275C68.0881 47.11 66.7645 46.0775 64.8528 46.0775H63.5292V51.9775H64.8528ZM76.0292 43.275H85.294V46.0775H79.2645V47.995H84.7057V50.65H79.2645V54.9275H76.0292V43.275ZM89.8528 43.275H93.0881V52.125H98.6763V54.9275H89.8528V43.275ZM107.059 43.1275H110.294L115.294 54.9275H111.765L110.882 52.8625H106.323L105.441 54.9275H102.059L107.059 43.1275ZM110 50.355L108.676 47.11L107.353 50.355H110ZM119.412 43.275H124.853C126.617 43.275 127.794 43.7175 128.676 44.6025C129.412 45.34 129.706 46.225 129.706 47.2575C129.706 49.0275 128.823 50.2075 127.353 50.7975L130.147 54.9275H126.47L124.117 51.3875H122.647V54.9275H119.412V43.275ZM124.706 48.88C125.735 48.88 126.47 48.29 126.47 47.5525C126.47 46.6675 125.735 46.225 124.706 46.225H122.647V49.0275H124.706V48.88ZM134.265 43.275H143.676V45.93H137.5V47.7H143.088V50.355H137.5V52.125H143.823V54.9275H134.265V43.275ZM8.82336 50.5025C8.38218 51.535 7.35277 52.2725 6.1763 52.2725C4.41159 52.2725 3.23512 50.7975 3.23512 49.175C3.23512 47.5525 4.41159 46.0775 6.1763 46.0775C7.49983 46.0775 8.52924 46.9625 8.97042 47.995H12.3528C11.7645 45.1925 9.41159 43.1275 6.1763 43.1275C2.64689 43.1275 -0.14723 45.7825 -0.14723 49.175C-0.14723 52.5675 2.49983 55.2225 6.02924 55.2225C9.11748 55.2225 11.4704 53.1575 12.2057 50.5025H8.82336Z" fill="#404242"/>
</g>
<defs>
<clipPath id="clip0_7_14">
<rect width="150" height="59" fill="white" transform="translate(0 0.5)"/>
</clipPath>
</defs>
</svg>
