<?xml version="1.0" encoding="utf-8"?>
<!-- Generator: Adobe Illustrator 18.0.0, SVG Export Plug-In . SVG Version: 6.00 Build 0)  -->
<!DOCTYPE svg PUBLIC "-//W3C//DTD SVG 1.1//EN" "http://www.w3.org/Graphics/SVG/1.1/DTD/svg11.dtd">
<svg version="1.1" id="Layer_1" xmlns="http://www.w3.org/2000/svg" xmlns:xlink="http://www.w3.org/1999/xlink" x="0px" y="0px"
	 viewBox="0 0 20 20" enable-background="new 0 0 20 20" xml:space="preserve">
<g id="prefix__bullet_new" transform="translate(.372)">
	<g id="prefix__bg" transform="translate(.628 1)">
		<path fill="#FFFFFF" d="M4,0h10c2.2,0,4,1.8,4,4v10c0,2.2-1.8,4-4,4H4c-2.2,0-4-1.8-4-4V4C0,1.8,1.8,0,4,0z"/>
		<path fill="none" stroke="#FF5F00" d="M4,0.5h10c1.9,0,3.5,1.6,3.5,3.5v10c0,1.9-1.6,3.5-3.5,3.5H4c-1.9,0-3.5-1.6-3.5-3.5V4
			C0.5,2.1,2.1,0.5,4,0.5z"/>
	</g>
	<g enable-background="new    ">
		<path fill="#FF5F00" d="M6.3,6.1h1.8l2.6,4.7l0.9,1.9h0.1c-0.1-0.9-0.2-2.1-0.2-3.1V6.1h1.7V15h-1.8l-2.6-4.8L7.8,8.3H7.8
			c0.1,1,0.2,2.1,0.2,3.1V15H6.3V6.1z"/>
	</g>
</g>
</svg>
