<?xml version="1.0" encoding="utf-8"?>
<!-- Generator: Adobe Illustrator 18.0.0, SVG Export Plug-In . SVG Version: 6.00 Build 0)  -->
<!DOCTYPE svg PUBLIC "-//W3C//DTD SVG 1.1//EN" "http://www.w3.org/Graphics/SVG/1.1/DTD/svg11.dtd">
<svg version="1.1" id="Layer_1" xmlns="http://www.w3.org/2000/svg" xmlns:xlink="http://www.w3.org/1999/xlink" x="0px" y="0px"
	 viewBox="-50 -48 102 102" enable-background="new -50 -48 102 102" xml:space="preserve">
<g>
	<g>
		<g>
			<path fill="#0D0F85" d="M26.9,21l-2,5.6L22.8,21h-4l4.1,9.8l0,0c-0.4,0.9-1.2,0.9-2.1,0.9c-0.4,0-0.7-0.1-0.8-0.1l-0.2-0.1v3.2
				h0.1c0.4,0.1,0.9,0.2,1.5,0.2c2.4,0,4.3-1.5,5.4-4.3l4-9.8h-3.9V21z"/>
			<polygon fill="#0D0F85" points="-24.8,26.5 -20.6,26.5 -20.6,31.1 -16.6,31.1 -16.6,18.6 -20.6,18.6 -20.6,23.3 -24.8,23.3 
				-24.8,18.6 -28.7,18.6 -28.7,31.1 -24.8,31.1 			"/>
			<path fill="#0D0F85" d="M1.7,24c1.1,0,1.9,0.9,1.9,2.1c0,1.3-0.8,2.1-1.9,2.1c-1.1,0-1.9-0.9-1.9-2.1C-0.2,24.8,0.6,24,1.7,24z
				 M7.4,26.1c0-3.1-2-5.3-4.9-5.3c-0.9,0-1.8,0.3-2.5,0.9V21h-3.8v12.5H0v-3c0.7,0.6,1.5,0.8,2.5,0.8C5.4,31.3,7.4,29.2,7.4,26.1z"
				/>
			<path fill="#0D0F85" d="M13.7,24c1.1,0,1.9,0.9,1.9,2.1c0,1.3-0.8,2.1-1.9,2.1s-1.9-0.9-1.9-2.1C11.8,24.8,12.6,24,13.7,24z
				 M14.5,20.8c-0.9,0-1.8,0.3-2.5,0.9V21H8.3v12.5H12v-3c0.7,0.6,1.5,0.8,2.5,0.8c2.9,0,4.9-2.2,4.9-5.3
				C19.4,23,17.4,20.8,14.5,20.8z"/>
			<path fill="#0D0F85" d="M-10.2,28.2c-1.1,0-1.9-0.9-1.9-2.1c0-1.3,0.8-2.1,1.9-2.1c1.1,0,1.9,0.9,1.9,2.1
				C-8.3,27.3-9.1,28.2-10.2,28.2z M-11,31.3c1,0,1.8-0.3,2.5-0.8v0.6h3.8V21h-3.8v0.6C-9.2,21-10,20.7-11,20.7
				c-2.9,0-4.9,2.2-4.9,5.3C-15.9,29.2-13.9,31.3-11,31.3z"/>
		</g>
		<g>
			<path fill="#0D0F85" d="M-3.2,44.7c0,1.3-0.8,2.2-1.9,2.2C-6.2,46.9-7,46-7,44.7c0-1.3,0.8-2.2,1.9-2.2S-3.2,43.4-3.2,44.7z
				 M-5.1,39.3c-3.2,0-5.7,2.4-5.7,5.4c0,3,2.5,5.4,5.7,5.4s5.7-2.4,5.7-5.4C0.6,41.7-1.9,39.3-5.1,39.3z"/>
			<rect x="1.4" y="39.6" fill="#0D0F85" width="3.8" height="10.1"/>
			<path fill="#0D0F85" d="M3.3,34.6c-1.2,0-2.2,1-2.2,2.2C1.1,38,2,39,3.3,39c1.2,0,2.2-0.9,2.2-2.2C5.5,35.6,4.6,34.6,3.3,34.6z"
				/>
			<path fill="#0D0F85" d="M12.7,39.4c-1.1,0-2,0.5-2.5,1.4l0.1-1.2H6.6v10.1h3.8V44c0-1,0.5-1.5,1.3-1.5c0.9,0,1.4,0.6,1.4,1.6v5.7
				h3.8v-6.2C16.6,41.1,15,39.4,12.7,39.4z"/>
			<path fill="#0D0F85" d="M22.3,37.2h-3.7v2.4H17v3h1.6v3.2c0,2.5,1.5,4.1,4,4.1c0.6,0,0.9,0,1.5-0.1h0.1v-3.2H24
				c-0.1,0-0.3,0-0.6,0c-0.6,0-1-0.4-1-1.1v-3h1.9v-3h-1.9L22.3,37.2L22.3,37.2z"/>
			<path fill="#0D0F85" d="M-18.3,40.4h1.6c0.9,0,1.6,0.7,1.6,1.6c0,1-0.6,1.6-1.6,1.6h-1.6V40.4z M-16.3,37.2h-6v12.5h4v-3h2
				c3,0,5.2-2.1,5.2-4.8C-11.1,39.3-13.3,37.2-16.3,37.2z"/>
		</g>
	</g>
	<g>
		<path fill="#0D0F85" d="M-15.3-36.5c2.8,6.2,9.1,10.5,16.3,10.5s13.5-4.3,16.3-10.5H-15.3z"/>
		<path fill="#0D0F85" d="M6.4-44c0,3-2.4,5.4-5.4,5.4s-5.4-2.4-5.4-5.4H6.4z"/>
		<path fill="#0D0F85" d="M1-2.6c-2.1,0-3.7-1.7-3.7-3.7S-1-9.9,1-9.9c2.1,0,3.7,1.7,3.7,3.7S3.1-2.6,1-2.6z M1-24.3
			c-9.9,0-18,8.1-18,18s8.1,17.9,18,17.9s18-8.1,18-18S10.9-24.3,1-24.3z"/>
	</g>
</g>
<rect x="-50" y="-48" fill="none" width="102" height="102"/>
</svg>
