<svg xmlns="http://www.w3.org/2000/svg" width="76" height="42" viewBox="0 0 76 42">
    <defs>
        <style>
            .prefix__cls-2{fill:#0a0a80}
        </style>
    </defs>
    <g id="prefix__logo" transform="translate(-549.328 -50.464)">
        <g id="prefix__그룹_7302" data-name="그룹 7302" transform="translate(553.328 54.464)">
            <path id="prefix__패스_12067" d="M1379.246 397.834l-1.281 3.659-1.4-3.659h-2.625l2.68 6.511-.007.014c-.284.569-.759.614-1.349.614a2.363 2.363 0 0 1-.55-.06l-.116-.033v2.127l.062.021a3.211 3.211 0 0 0 1 .12c1.593 0 2.823-.978 3.558-2.828l2.591-6.485z" class="prefix__cls-2" data-name="패스 12067" transform="translate(-1314.35 -388.279)"/>
            <path id="prefix__패스_12068" d="M773.19 372.655h2.756v3.087h2.608v-8.27h-2.608v3.087h-2.756v-3.087h-2.608v8.27h2.608z" class="prefix__cls-2" data-name="패스 12068" transform="translate(-741.948 -359.466)"/>
            <path id="prefix__패스_12069" d="M1095.193 398.846a3.209 3.209 0 0 0-3.219-3.475 2.454 2.454 0 0 0-1.608.561v-.432h-2.48v8.27h2.48v-2a2.427 2.427 0 0 0 1.608.549 3.209 3.209 0 0 0 3.219-3.475m-3.73-1.4a1.417 1.417 0 1 1-1.225 1.4 1.266 1.266 0 0 1 1.225-1.4" class="prefix__cls-2" data-name="패스 12069" transform="translate(-1042.967 -385.938)"/>
            <path id="prefix__패스_12070" d="M1244.7 395.371a2.454 2.454 0 0 0-1.608.561v-.432h-2.48v8.27h2.48v-2a2.426 2.426 0 0 0 1.608.549 3.485 3.485 0 0 0 0-6.95m-.511 2.072a1.417 1.417 0 1 1-1.225 1.4 1.266 1.266 0 0 1 1.225-1.4" class="prefix__cls-2" data-name="패스 12070" transform="translate(-1187.941 -385.938)"/>
            <path id="prefix__패스_12071" d="M936.857 402.2a2.426 2.426 0 0 0 1.608-.549v.42h2.48v-6.694h-2.48v.434a2.454 2.454 0 0 0-1.608-.561 3.485 3.485 0 0 0 0 6.95m.511-2.072a1.417 1.417 0 1 1 1.225-1.4 1.266 1.266 0 0 1-1.225 1.4" class="prefix__cls-2" data-name="패스 12071" transform="translate(-896.633 -385.812)"/>
            <path id="prefix__패스_12072" d="M921.312 630.442a3.544 3.544 0 1 0 3.731 3.539 3.6 3.6 0 0 0-3.731-3.539m1.225 3.539a1.238 1.238 0 1 1-1.225-1.416 1.259 1.259 0 0 1 1.225 1.416" class="prefix__cls-2" data-name="패스 12072" transform="translate(-881.402 -608.959)"/>
            <path id="prefix__사각형_4001" d="M0 0H2.48V6.699H0z" class="prefix__cls-2" data-name="사각형 4001" transform="translate(44.12 21.676)"/>
            <path id="prefix__패스_12073" d="M1069.349 571.37a1.416 1.416 0 0 0-1.432 1.432 1.432 1.432 0 1 0 1.432-1.432" class="prefix__cls-2" data-name="패스 12073" transform="translate(-1023.99 -552.882)"/>
            <path id="prefix__패스_12074" d="M1140.236 631.674a1.93 1.93 0 0 0-1.666.894l.036-.767h-2.485v6.699h2.48v-3.8c0-.623.315-.995.842-.995.559 0 .893.391.893 1.046v3.749h2.48v-4.088a2.546 2.546 0 0 0-2.581-2.734" class="prefix__cls-2" data-name="패스 12074" transform="translate(-1088.724 -610.125)"/>
            <path id="prefix__패스_12075" d="M1273.665 604.126h-2.455v1.56h-1.022v1.969h1.022v2.128a2.449 2.449 0 0 0 2.594 2.683 5.1 5.1 0 0 0 .985-.091l.076-.012v-2.11l-.1.015a3.038 3.038 0 0 1-.421.025.627.627 0 0 1-.676-.688v-1.949h1.277v-1.969h-1.277z" class="prefix__cls-2" data-name="패스 12075" transform="translate(-1215.983 -584.004)"/>
            <path id="prefix__패스_12076" d="M774.5 603.774h-3.922v8.27h2.608v-1.958h1.314a3.165 3.165 0 1 0 0-6.312m-1.314 2.1h1.059a1.059 1.059 0 0 1 0 2.117h-1.055z" class="prefix__cls-2" data-name="패스 12076" transform="translate(-741.944 -583.669)"/>
            <g id="prefix__그룹_7303" data-name="그룹 7303">
                <path id="prefix__패스_12077" d="M231.858 300.057a10.863 10.863 0 0 0 19.8 0z" class="prefix__cls-2" data-name="패스 12077" transform="translate(-230.849 -295.443)"/>
                <path id="prefix__패스_12078" d="M365.535 211.128a3.246 3.246 0 0 1-6.492 0z" class="prefix__cls-2" data-name="패스 12078" transform="translate(-351.435 -211.128)"/>
                <path id="prefix__패스_12079" d="M223.334 448.527a10.914 10.914 0 1 0 10.914 10.914 10.914 10.914 0 0 0-10.914-10.914m0 13.161a2.247 2.247 0 1 1 2.247-2.247 2.248 2.248 0 0 1-2.247 2.247" class="prefix__cls-2" data-name="패스 12079" transform="translate(-212.42 -436.55)"/>
            </g>
        </g>
    </g>
</svg>
