<?xml version="1.0" encoding="utf-8"?>
<!-- Generator: Adobe Illustrator 18.0.0, SVG Export Plug-In . SVG Version: 6.00 Build 0)  -->
<!DOCTYPE svg PUBLIC "-//W3C//DTD SVG 1.1//EN" "http://www.w3.org/Graphics/SVG/1.1/DTD/svg11.dtd">
<svg version="1.1" id="Layer_1" xmlns="http://www.w3.org/2000/svg" xmlns:xlink="http://www.w3.org/1999/xlink" x="0px" y="0px"
	 viewBox="0 6 400 400" enable-background="new 0 6 400 400" xml:space="preserve">
<g id="Layer_3" display="none">
	<rect y="2.5" display="inline" fill="#EDEDED" width="0.1" height="0.1"/>
	<rect x="0.1" y="2.5" display="inline" fill="#EDEDED" width="0.1" height="0.1"/>
	<rect y="2.6" display="inline" opacity="0.6" fill="#EDEDED" enable-background="new    " width="0.1" height="0.1"/>
	<rect y="2.7" display="inline" fill="#EDEDED" width="0.1" height="0.1"/>
	<rect y="2.9" display="inline" fill="#EDEDED" width="0.1" height="0.1"/>
	<rect y="3" display="inline" opacity="0.6" fill="#EDEDED" enable-background="new    " width="0.1" height="0.1"/>
	<rect x="0" y="3.1" display="inline" fill="#EDEDED" width="0.1" height="0.1"/>
	<rect x="0.1" y="2.6" display="inline" opacity="0.6" fill="#EDEDED" enable-background="new    " width="0.1" height="0.1"/>
	<rect x="0.1" y="2.7" display="inline" fill="#EDEDED" width="0.1" height="0.1"/>
	<rect x="0.3" y="2.5" display="inline" fill="#EDEDED" width="0.1" height="0.1"/>
	<rect x="0.3" y="2.6" display="inline" opacity="0.6" fill="#EDEDED" enable-background="new    " width="0.1" height="0.1"/>
	<rect x="0.4" y="2.5" display="inline" fill="#EDEDED" width="0.1" height="0.1"/>
	<rect x="0.4" y="2.6" display="inline" opacity="0.6" fill="#EDEDED" enable-background="new    " width="0.1" height="0.1"/>
	<rect x="0.4" y="2.7" display="inline" fill="#EDEDED" width="0.1" height="0.1"/>
</g>
<path id="prefix__패스_10908_2_" fill="none" stroke="#FE4F27" stroke-linecap="round" stroke-linejoin="round" stroke-miterlimit="10" d="
	M56.7,42l4,4l6.8-6.9"/>
<path id="prefix__패스_10906_4_" fill="none" stroke="#BBBBBB" stroke-linecap="round" stroke-linejoin="round" stroke-miterlimit="10" d="
	M56.7,17.9l4,4l6.8-6.9"/>
<g>
	<circle id="prefix__타원_320_15_" fill="#FE4F27" cx="83" cy="31" r="8"/>
	
		<path id="prefix__패스_10908_3_" fill="none" stroke="#FFFFFF" stroke-width="0.75" stroke-linecap="round" stroke-linejoin="round" stroke-miterlimit="10" d="
		M79.4,31l2.7,2.7l4.6-4.6"/>
</g>
<g>
	<circle id="prefix__타원_320_14_" fill="#BBBBBB" cx="83" cy="14" r="8"/>
	
		<path id="prefix__패스_10906_6_" fill="none" stroke="#FFFFFF" stroke-width="0.75" stroke-linecap="round" stroke-linejoin="round" stroke-miterlimit="10" d="
		M79.4,13.9l2.7,2.7l4.6-4.6"/>
</g>
<g>
	<circle id="prefix__타원_320_10_" opacity="0.36" fill="#BBBBBB" enable-background="new    " cx="83" cy="48" r="8"/>
	
		<path id="prefix__패스_10906_5_" fill="none" stroke="#FFFFFF" stroke-width="0.75" stroke-linecap="round" stroke-linejoin="round" stroke-miterlimit="10" d="
		M79.4,48l2.7,2.6l4.5-4.7"/>
</g>
<g>
	<g>
		<circle id="prefix__타원_320_3_" fill="#FE4F27" cx="35" cy="37" r="5"/>
	</g>
	<g id="prefix__타원_320_2_">
		<path fill="#FE4F27" d="M35,28c5,0,9,4,9,9s-4,9-9,9s-9-4-9-9S30,28,35,28 M35,27c-5.5,0-10,4.5-10,10s4.5,10,10,10s10-4.5,10-10
			S40.5,27,35,27L35,27z"/>
	</g>
</g>
<g id="prefix__타원_320_4_" opacity="0.36">
	<path fill="#BBBBBB" d="M35,49c5,0,9,4,9,9s-4,9-9,9s-9-4-9-9S30,49,35,49 M35,48c-5.5,0-10,4.5-10,10s4.5,10,10,10s10-4.5,10-10
		S40.5,48,35,48L35,48z"/>
</g>
<g id="prefix__타원_320_9_">
	<path fill="#BBBBBB" d="M35,7c5,0,9,4.1,9,9s-4,9-9,9s-9-4-9-9S30,7,35,7 M35,6c-5.5,0-10,4.5-10,10s4.5,10,10,10s10-4.5,10-10
		S40.5,6,35,6L35,6z"/>
</g>
<g>
	<circle id="prefix__타원_320_8_" fill="#FE4F27" cx="12" cy="43" r="12"/>
	
		<path id="prefix__패스_10908_1_" fill="none" stroke="#FFFFFF" stroke-linecap="round" stroke-linejoin="round" stroke-miterlimit="10" d="
		M6.6,42.9l4,4l6.8-6.9"/>
</g>
<g>
	<circle id="prefix__타원_320_7_" fill="#BBBBBB" cx="12" cy="18" r="12"/>
	
		<path id="prefix__패스_10906_3_" fill="none" stroke="#FFFFFF" stroke-linecap="round" stroke-linejoin="round" stroke-miterlimit="10" d="
		M6.6,17.9l4,4l6.8-6.9"/>
</g>
<g>
	<circle id="prefix__타원_320_6_" opacity="0.36" fill="#BBBBBB" enable-background="new    " cx="12" cy="68" r="12"/>
	
		<path id="prefix__패스_10906_2_" fill="none" stroke="#FFFFFF" stroke-linecap="round" stroke-linejoin="round" stroke-miterlimit="10" d="
		M6.6,68l4,3.9l6.8-6.9"/>
</g>
<g>
	<circle id="prefix__타원_320_22_" fill="#FE4F27" cx="12" cy="117.8" r="6"/>
	<g id="prefix__타원_320_20_">
		<path fill="#FE4F27" d="M12,107c6,0,11,4.9,11,11s-5,11-11,11s-11-4.9-11-11S5.9,107,12,107 M12,106c-6.7,0-12,5.3-12,12
			s5.3,12,12,12s12-5.3,12-12S18.6,106,12,106L12,106z"/>
	</g>
</g>
<g id="prefix__타원_320_18_" opacity="0.36">
	<path fill="#BBBBBB" d="M12.1,132c6.1,0,11,4.9,11,11s-5,11-11,11s-11-4.9-11-11S6,132,12.1,132 M12.1,131c-6.7,0-12,5.3-12,12
		c0,6.6,5.3,12,12,12s12-5.4,12-12S18.7,131,12.1,131L12.1,131z"/>
</g>
<g id="prefix__타원_320_16_">
	<path fill="#BBBBBB" d="M12,82c6,0,11,4.9,11,11s-5,11-11,11S1,99.1,1,93S5.9,82,12,82 M12,81C5.3,81,0,86.3,0,93s5.3,12,12,12
		s12-5.3,12-12S18.6,81,12,81L12,81z"/>
</g>
<line fill="none" stroke="#BBBBBB" stroke-width="0.25" stroke-linecap="round" stroke-linejoin="round" stroke-miterlimit="10" x1="50" y1="3.3" x2="50" y2="-7"/>
<line fill="none" stroke="#BBBBBB" stroke-width="0.25" stroke-linecap="round" stroke-linejoin="round" stroke-miterlimit="10" x1="74" y1="3.3" x2="74" y2="-7"/>
</svg>
